<?xml version="1.0" standalone="no"?>
<!DOCTYPE svg PUBLIC "-//W3C//DTD SVG 20010904//EN"
 "http://www.w3.org/TR/2001/REC-SVG-20010904/DTD/svg10.dtd">
<svg version="1.0" xmlns="http://www.w3.org/2000/svg"
 width="210.000000pt" height="67.000000pt" viewBox="0 0 210.000000 67.000000"
 preserveAspectRatio="xMidYMid meet">
<metadata>
Created by potrace 1.16, written by Peter Selinger 2001-2019
</metadata>
<g transform="translate(0.000000,67.000000) scale(0.100000,-0.100000)"
fill="#000000" stroke="none">
<path d="M95 571 c-70 -17 -95 -45 -95 -105 0 -36 0 -36 43 -36 34 0 44 4 52
23 12 26 47 34 64 13 18 -22 3 -43 -84 -121 -74 -66 -75 -68 -75 -116 l0 -49
135 0 135 0 0 50 0 50 -61 0 -61 0 33 27 c48 41 89 102 89 135 0 23 4 28 25
28 l25 0 0 -145 0 -145 55 0 54 0 3 137 3 138 54 -138 55 -138 55 3 56 3 37
90 c21 50 39 94 41 99 2 5 3 -13 3 -40 0 -27 8 -64 18 -82 32 -62 116 -94 189
-72 40 12 107 70 107 92 0 10 -93 6 -140 -7 -16 -4 -32 -1 -45 9 -18 14 -12
15 83 16 l102 0 0 45 c0 26 -7 59 -14 74 -30 57 -111 88 -183 70 -40 -11 -103
-60 -103 -82 0 -6 -3 -8 -6 -5 -3 4 2 20 10 37 9 16 16 32 16 36 0 3 -24 5
-54 5 -49 0 -54 -2 -64 -27 -32 -87 -48 -123 -52 -123 -4 0 -32 68 -53 133 -5
13 -18 17 -62 17 l-55 0 0 45 0 45 -80 0 -80 0 0 -31 0 -31 -25 30 c-14 17
-40 33 -58 37 -17 4 -39 8 -47 10 -8 1 -28 0 -45 -4z"/>
<path d="M1070 370 l0 -190 50 0 50 0 0 52 0 52 38 -52 37 -51 113 -1 112 0 0
50 0 50 -55 0 -55 0 0 -42 0 -42 -50 68 c-55 77 -55 74 9 146 23 25 41 48 41
53 0 4 -27 7 -60 7 -59 0 -59 0 -95 -46 l-35 -47 0 92 0 91 -50 0 -50 0 0
-190z"/>
<path d="M1490 369 l0 -190 63 1 c34 1 79 -1 100 -5 84 -17 161 54 161 150 1
29 2 53 2 52 10 -14 74 -190 74 -203 -1 -11 -7 -30 -15 -44 -25 -44 -20 -51
37 -48 l53 3 43 105 c23 58 53 133 67 167 14 34 25 73 25 87 0 24 -3 26 -44
26 l-45 0 -27 -74 c-16 -41 -31 -73 -34 -71 -4 2 -19 36 -34 74 l-28 71 -55 0
c-45 0 -54 -3 -49 -15 3 -8 1 -15 -4 -15 -6 0 -10 4 -10 9 0 5 -20 17 -45 26
-42 16 -75 16 -117 0 -16 -6 -18 -1 -18 39 l0 46 -50 0 -50 0 0 -191z"/>
</g>
</svg>
