<svg xmlns="http://www.w3.org/2000/svg" id="Layer_1" viewBox="0 0 200 170"><style>.st1{fill:#fefefe}</style><linearGradient id="SVGID_1_" x1="6.826" x2="193.174" y1="84.944" y2="84.944" gradientUnits="userSpaceOnUse"><stop offset="0" stop-color="#83298e"/><stop offset="1" stop-color="#d11d60"/></linearGradient><path fill="url(#SVGID_1_)" d="M193.2 71.4v-7H6.8v41.1h186.4V91.8h-19.7v-6.5h19.7v-7h-6.4v-6.9z"/><path d="M147.1 105.6c.4-.2.9-.9 1.2-1.4 0 0 1.2-2.8 1.9-4.2.3-.7.2-1.3-.1-2l-7.6-19.2c-.1-.3-.2-.6 0-.8.4-.3.7-.3 1.1-.3l5.1.1c.6.3 5 11.8 5.3 12.1.5-.2 4.1-10.7 4.1-10.7.5-1.3.7-1.5 2.1-1.5h4c1.2 0 1.5.4 1 1.6l-9.9 24.6c-.5 1.1-.3 1.6 1 1.6" class="st1"/><path fill="#d11d60" d="M142.6 78.9c-.2.2-.4.4-.6.1-.2-.3-.1-.7.4-.7 0 .2.1.4.2.6z"/><path d="M46.2 79.2c-.5-1.1-.5-1.1.8-1.1 1 0 2 0 3-.1 2.1-.5 2.7.9 3.3 2.6l4.1 10.6 4.8-12.5c.2-.5.4-.7.9-.7h5c.7 0 .7.3.5.8l-6.9 17.1c-.7 1.9-1.6 2.5-3.6 2.3h-3.8c-.5 0-.7-.1-.8-.6l-7.3-18.4z" class="st1"/><path fill="#9c257f" d="M79.4 77.3h-2.3c.8-.2 1.6-.2 2.3 0z"/><path d="M14 98.3c-.4-1.6-.1-3.2-.2-4.8 0-.5.4-.7.7-.9 3.4-3.1 6.9-5.9 10.1-9.2 1.1-1.1 2.1-2.1 2.1-3.9-.1-1.4-.8-2.5-2.1-2.8-1.7-.4-3.2.1-3.8 1.4-.3.5-.5 1-.5 1.6 0 .7-.2.9-.9.9-1.5-.1-3 0-4.5 0-.7 0-.8-.2-.8-.8.1-4.2 3.2-7.8 7.3-8.5l2.2-.3c1.6.1 3.1.2 4.6.7 4.6 1.9 6.4 7 4.2 11.4-1.2 2.4-3.2 4.3-5.2 6.1-1.1 1-2.3 2-3.5 2.9.2.4.6.2.7.2h7.9c.7 0 .9.2.8.8-.1 1.3-.1 2.6 0 4 0 .8-.2 1.1-1 1.1l-18.1.1zm30.2-1.2c0 1-.3 1.2-1.2 1.2-1.4-.1-2.7-.1-4.1 0-.7 0-.9-.3-.9-.9V78.7c0-1-.2-1.4-1.3-1.4-2.3.1-2.3 0-2.3-2.3v-2.3c0-.6.2-.7.7-.7h8.4c.7 0 .7.4.7.9v24.2zm66.5-18.2c.3-.2.6-.5.6-.9-1.7 0-3.5.1-5.1 0-1.3-.1-2.3.1-3.1 1.3-1.9 2.2-3.6 4.6-5.4 6.8 0-.1-.1-.1-.2-.2V72.7c0-.7-.2-.9-.9-.9-1.4.1-2.9 0-4.3 0-.7 0-.9.2-.8.8V97c0 1 .2 1.4 1.2 1.3.9-.1 1.9 0 2.8 0 2.1 0 2.1 0 2.1-2.1v-6.6c2 2.4 3.9 4.8 5.5 7.4.5.4.7 1.2 1.5 1h6.6l-7-9.7c-.5-.6-.4-.9.1-1.5a245 245 0 0 0 6.4-7.9zm-31.2-1.5c-.7-.1-1.6-.1-2.3 0-.4.1-.7.1-1.1.2-.4.1-.7.2-1.1.2-7.6 2.3-10.1 12-4.6 17.7 2 2 4.2 2.9 6.8 3.4h1.7c4.1-.2 7.3-2.1 9.3-5.7.6-1 .6-1.1-.7-1.1h-4.4c-.6 0-1 .1-1.5.6-2.3 2.1-7.1 1.2-7.9-2.2h14.6c.5 0 1.1.2 1.1-.7.1-1.2.2-2.4-.1-3.6-1.2-5-4.4-7.9-9.8-8.8zm3.4 8.6h-9.2c.7-2 2.3-3.3 4.5-3.4 2.1-.1 4.1.9 4.9 2.5.1.3.6.9-.2.9zm59.4-4.1l-.3-.3c-2.7-4-7.1-5.3-11.6-3.6-1 .4-1.8 1-2.8 1.6v-7c.1-.7-.1-.8-.7-.8-1.4 0-2.8.1-4.2 0-.8-.1-1.1.2-1.1 1.1v24.4c0 .8.3 1.1 1 1 1.1-.1 2.2-.1 3.3 0 1 .1 2 .1 1.7-1.4.4-.2.5.1.7.2 1.6 1.3 3.5 1.9 5.5 1.9 3.9 0 6.7-1.9 8.8-5 1.9-4.1 1.8-8.2-.3-12.1zm-9.6 11.8c-2.9 0-5.1-2.4-5.1-5.5s2.3-5.5 5.2-5.5c2.8 0 5 2.4 5 5.5.1 3.1-2.3 5.5-5.1 5.5zm-14.3 4.7h-5.1c-.4 0-.7-.3-.7-.7v-4.9c0-.4.3-.7.7-.7h5.1c.4 0 .7.3.7.7v4.9c0 .4-.3.7-.7.7z" class="st1"/></svg>